<mxfile host="app.diagrams.net" modified="2023-06-15T03:46:29.707Z" agent="Mozilla/5.0 (Windows NT 10.0; Win64; x64) AppleWebKit/537.36 (KHTML, like Gecko) Chrome/114.0.0.0 Safari/537.36" etag="Ss4ajq2aGnX85rw7frTR" version="21.4.0" type="github">
  <diagram id="prtHgNgQTEPvFCAcTncT" name="Page-1">
    <mxGraphModel dx="1306" dy="794" grid="1" gridSize="10" guides="1" tooltips="1" connect="1" arrows="1" fold="1" page="1" pageScale="1" pageWidth="827" pageHeight="1169" math="0" shadow="0">
      <root>
        <mxCell id="0" />
        <mxCell id="1" parent="0" />
        <mxCell id="cSW4Z2ZxeV3dkl7jvMhe-1" value="" style="rounded=0;whiteSpace=wrap;html=1;fillColor=#f5f5f5;strokeColor=#666666;fontColor=#333333;" vertex="1" parent="1">
          <mxGeometry x="414" y="985" width="236" height="184" as="geometry" />
        </mxCell>
        <mxCell id="cSW4Z2ZxeV3dkl7jvMhe-2" value="" style="rounded=0;whiteSpace=wrap;html=1;fillColor=#f5f5f5;strokeColor=#666666;fontColor=#333333;strokeWidth=2;" vertex="1" parent="1">
          <mxGeometry x="210" y="640" width="1050" height="290" as="geometry" />
        </mxCell>
        <mxCell id="cSW4Z2ZxeV3dkl7jvMhe-3" value="前端登录页面：http://172.31.103.10" style="rounded=1;whiteSpace=wrap;html=1;fillColor=#f5f5f5;strokeColor=#666666;fontColor=#333333;" vertex="1" parent="1">
          <mxGeometry x="210" y="598" width="724.5" height="30" as="geometry" />
        </mxCell>
        <mxCell id="cSW4Z2ZxeV3dkl7jvMhe-4" value="k8s&amp;nbsp;master1&lt;br&gt;172.31.103.10" style="verticalLabelPosition=bottom;sketch=0;aspect=fixed;html=1;verticalAlign=top;strokeColor=rgb(0, 0, 0);align=center;outlineConnect=0;shape=mxgraph.citrix.tower_server;shadow=0;dashed=0;fontFamily=Helvetica;fontSize=12;fontColor=rgb(0, 0, 0);fillColor=rgb(255, 255, 255);" vertex="1" parent="1">
          <mxGeometry x="244.5" y="704.5" width="28.000000000000004" height="50" as="geometry" />
        </mxCell>
        <mxCell id="cSW4Z2ZxeV3dkl7jvMhe-5" value="k8s&amp;nbsp;master2&lt;br&gt;172.31.103.11" style="verticalLabelPosition=bottom;sketch=0;aspect=fixed;html=1;verticalAlign=top;strokeColor=rgb(0, 0, 0);align=center;outlineConnect=0;shape=mxgraph.citrix.tower_server;shadow=0;dashed=0;fontFamily=Helvetica;fontSize=12;fontColor=rgb(0, 0, 0);fillColor=rgb(255, 255, 255);" vertex="1" parent="1">
          <mxGeometry x="350.56" y="704.5" width="28.000000000000004" height="50" as="geometry" />
        </mxCell>
        <mxCell id="cSW4Z2ZxeV3dkl7jvMhe-6" value="k8s&amp;nbsp;master3&lt;br&gt;172.31.103.12" style="verticalLabelPosition=bottom;sketch=0;aspect=fixed;html=1;verticalAlign=top;strokeColor=rgb(0, 0, 0);align=center;outlineConnect=0;shape=mxgraph.citrix.tower_server;shadow=0;dashed=0;fontFamily=Helvetica;fontSize=12;fontColor=rgb(0, 0, 0);fillColor=rgb(255, 255, 255);" vertex="1" parent="1">
          <mxGeometry x="455.5000000000001" y="704.5" width="28.000000000000004" height="50" as="geometry" />
        </mxCell>
        <mxCell id="cSW4Z2ZxeV3dkl7jvMhe-7" value="" style="shape=partialRectangle;whiteSpace=wrap;html=1;bottom=1;right=1;left=1;top=0;fillColor=none;routingCenterX=-0.5;rounded=1;rotation=-180;" vertex="1" parent="1">
          <mxGeometry x="364" y="675" width="334.24" height="34" as="geometry" />
        </mxCell>
        <mxCell id="cSW4Z2ZxeV3dkl7jvMhe-8" value="数据采集&lt;br&gt;引擎服务器1&lt;br&gt;172.31.103.16" style="verticalLabelPosition=bottom;sketch=0;aspect=fixed;html=1;verticalAlign=top;strokeColor=rgb(0, 0, 0);align=center;outlineConnect=0;shape=mxgraph.citrix.tower_server;shadow=0;dashed=0;fontFamily=Helvetica;fontSize=12;fontColor=rgb(0, 0, 0);fillColor=rgb(255, 255, 255);" vertex="1" parent="1">
          <mxGeometry x="476.5" y="1022" width="28.000000000000004" height="50" as="geometry" />
        </mxCell>
        <mxCell id="cSW4Z2ZxeV3dkl7jvMhe-14" value="采集引擎" style="text;html=1;align=center;verticalAlign=middle;resizable=0;points=[];autosize=1;strokeColor=none;fillColor=none;" vertex="1" parent="1">
          <mxGeometry x="510" y="1129" width="58" height="18" as="geometry" />
        </mxCell>
        <mxCell id="cSW4Z2ZxeV3dkl7jvMhe-63" value="" style="shape=partialRectangle;whiteSpace=wrap;html=1;bottom=1;right=1;left=1;top=0;fillColor=none;routingCenterX=-0.5;rounded=1;rotation=-180;" vertex="1" parent="1">
          <mxGeometry x="250.38000000000002" y="677.5" width="218.56" height="27" as="geometry" />
        </mxCell>
        <mxCell id="cSW4Z2ZxeV3dkl7jvMhe-120" value="" style="rounded=0;whiteSpace=wrap;html=1;dashed=1;fillColor=#eeeeee;strokeColor=#38373e;strokeWidth=2;" vertex="1" parent="1">
          <mxGeometry x="850" y="660" width="401.5" height="263" as="geometry" />
        </mxCell>
        <mxCell id="cSW4Z2ZxeV3dkl7jvMhe-79" value="" style="rounded=0;whiteSpace=wrap;html=1;dashed=1;fillColor=#eeeeee;strokeColor=#36393d;" vertex="1" parent="1">
          <mxGeometry x="1119.88" y="695.5" width="121.75" height="219" as="geometry" />
        </mxCell>
        <mxCell id="cSW4Z2ZxeV3dkl7jvMhe-82" value="中间件" style="text;html=1;align=center;verticalAlign=middle;resizable=0;points=[];autosize=1;strokeColor=none;fillColor=none;" vertex="1" parent="1">
          <mxGeometry x="1153.2600000000002" y="704.5" width="54" height="26" as="geometry" />
        </mxCell>
        <mxCell id="cSW4Z2ZxeV3dkl7jvMhe-83" value="hdfs" style="rounded=0;whiteSpace=wrap;html=1;" vertex="1" parent="1">
          <mxGeometry x="1128.38" y="750" width="103.75" height="21.5" as="geometry" />
        </mxCell>
        <mxCell id="cSW4Z2ZxeV3dkl7jvMhe-84" value="zookeeper" style="rounded=0;whiteSpace=wrap;html=1;" vertex="1" parent="1">
          <mxGeometry x="1128.38" y="771.5" width="103.75" height="21.5" as="geometry" />
        </mxCell>
        <mxCell id="cSW4Z2ZxeV3dkl7jvMhe-85" value="minio" style="rounded=0;whiteSpace=wrap;html=1;" vertex="1" parent="1">
          <mxGeometry x="1128.38" y="793" width="103.75" height="21.5" as="geometry" />
        </mxCell>
        <mxCell id="cSW4Z2ZxeV3dkl7jvMhe-86" value="rabbitMQ" style="rounded=0;whiteSpace=wrap;html=1;" vertex="1" parent="1">
          <mxGeometry x="1128.39" y="814.5" width="103.75" height="21.5" as="geometry" />
        </mxCell>
        <mxCell id="cSW4Z2ZxeV3dkl7jvMhe-87" value="redis" style="rounded=0;whiteSpace=wrap;html=1;" vertex="1" parent="1">
          <mxGeometry x="1128.39" y="836" width="103.75" height="21.5" as="geometry" />
        </mxCell>
        <mxCell id="cSW4Z2ZxeV3dkl7jvMhe-88" value="" style="rounded=0;whiteSpace=wrap;html=1;dashed=1;fillColor=#eeeeee;strokeColor=#36393d;" vertex="1" parent="1">
          <mxGeometry x="859.88" y="693" width="250" height="221.5" as="geometry" />
        </mxCell>
        <mxCell id="cSW4Z2ZxeV3dkl7jvMhe-89" value="数据汇聚&amp;nbsp;" style="rounded=0;whiteSpace=wrap;html=1;" vertex="1" parent="1">
          <mxGeometry x="871.63" y="713.5" width="103.75" height="21.5" as="geometry" />
        </mxCell>
        <mxCell id="cSW4Z2ZxeV3dkl7jvMhe-90" value="数据开发" style="rounded=0;whiteSpace=wrap;html=1;" vertex="1" parent="1">
          <mxGeometry x="871.63" y="735" width="103.75" height="21.5" as="geometry" />
        </mxCell>
        <mxCell id="cSW4Z2ZxeV3dkl7jvMhe-91" value="数据治理" style="rounded=0;whiteSpace=wrap;html=1;" vertex="1" parent="1">
          <mxGeometry x="871.63" y="756.5" width="103.75" height="21.5" as="geometry" />
        </mxCell>
        <mxCell id="cSW4Z2ZxeV3dkl7jvMhe-92" value="数据服务" style="rounded=0;whiteSpace=wrap;html=1;" vertex="1" parent="1">
          <mxGeometry x="871.63" y="778" width="103.75" height="21.5" as="geometry" />
        </mxCell>
        <mxCell id="cSW4Z2ZxeV3dkl7jvMhe-93" value="资产运营" style="rounded=0;whiteSpace=wrap;html=1;" vertex="1" parent="1">
          <mxGeometry x="871.63" y="799.5" width="103.75" height="21.5" as="geometry" />
        </mxCell>
        <mxCell id="cSW4Z2ZxeV3dkl7jvMhe-94" value="主数据管理" style="rounded=0;whiteSpace=wrap;html=1;" vertex="1" parent="1">
          <mxGeometry x="871.63" y="840.5" width="103.75" height="21.5" as="geometry" />
        </mxCell>
        <mxCell id="cSW4Z2ZxeV3dkl7jvMhe-95" value="指标管理" style="rounded=0;whiteSpace=wrap;html=1;" vertex="1" parent="1">
          <mxGeometry x="871.63" y="862" width="103.75" height="21.5" as="geometry" />
        </mxCell>
        <mxCell id="cSW4Z2ZxeV3dkl7jvMhe-96" value="管理中心" style="rounded=0;whiteSpace=wrap;html=1;" vertex="1" parent="1">
          <mxGeometry x="871.63" y="884" width="103.75" height="21.5" as="geometry" />
        </mxCell>
        <mxCell id="cSW4Z2ZxeV3dkl7jvMhe-97" value="注册中心" style="rounded=0;whiteSpace=wrap;html=1;" vertex="1" parent="1">
          <mxGeometry x="994.6300000000001" y="713.5" width="103.75" height="21.5" as="geometry" />
        </mxCell>
        <mxCell id="cSW4Z2ZxeV3dkl7jvMhe-98" value="单点登录" style="rounded=0;whiteSpace=wrap;html=1;" vertex="1" parent="1">
          <mxGeometry x="994.6300000000001" y="735" width="103.75" height="21.5" as="geometry" />
        </mxCell>
        <mxCell id="cSW4Z2ZxeV3dkl7jvMhe-99" value="统一网关" style="rounded=0;whiteSpace=wrap;html=1;" vertex="1" parent="1">
          <mxGeometry x="994.6300000000001" y="756.5" width="103.75" height="21.5" as="geometry" />
        </mxCell>
        <mxCell id="cSW4Z2ZxeV3dkl7jvMhe-100" value="统一查询" style="rounded=0;whiteSpace=wrap;html=1;" vertex="1" parent="1">
          <mxGeometry x="994.6300000000001" y="778" width="103.75" height="21.5" as="geometry" />
        </mxCell>
        <mxCell id="cSW4Z2ZxeV3dkl7jvMhe-101" value="日志审计" style="rounded=0;whiteSpace=wrap;html=1;" vertex="1" parent="1">
          <mxGeometry x="994.6300000000001" y="799.5" width="103.75" height="21.5" as="geometry" />
        </mxCell>
        <mxCell id="cSW4Z2ZxeV3dkl7jvMhe-102" value="OSS服务" style="rounded=0;whiteSpace=wrap;html=1;" vertex="1" parent="1">
          <mxGeometry x="994.6300000000001" y="821" width="103.75" height="21.5" as="geometry" />
        </mxCell>
        <mxCell id="cSW4Z2ZxeV3dkl7jvMhe-103" value="交易平台" style="rounded=0;whiteSpace=wrap;html=1;" vertex="1" parent="1">
          <mxGeometry x="871.63" y="819" width="103.75" height="21.5" as="geometry" />
        </mxCell>
        <mxCell id="cSW4Z2ZxeV3dkl7jvMhe-104" value="首页" style="rounded=0;whiteSpace=wrap;html=1;" vertex="1" parent="1">
          <mxGeometry x="994.6300000000001" y="842.5" width="103.75" height="21.5" as="geometry" />
        </mxCell>
        <mxCell id="cSW4Z2ZxeV3dkl7jvMhe-105" value="前端框架" style="rounded=0;whiteSpace=wrap;html=1;" vertex="1" parent="1">
          <mxGeometry x="994.6300000000001" y="864" width="103.75" height="21.5" as="geometry" />
        </mxCell>
        <mxCell id="cSW4Z2ZxeV3dkl7jvMhe-106" value="应用服务" style="text;html=1;align=center;verticalAlign=middle;resizable=0;points=[];autosize=1;strokeColor=none;fillColor=none;rotation=0;" vertex="1" parent="1">
          <mxGeometry x="944.88" y="689" width="70" height="30" as="geometry" />
        </mxCell>
        <mxCell id="cSW4Z2ZxeV3dkl7jvMhe-107" value="neo4j" style="rounded=0;whiteSpace=wrap;html=1;" vertex="1" parent="1">
          <mxGeometry x="1128.39" y="857.5" width="103.75" height="21.5" as="geometry" />
        </mxCell>
        <mxCell id="cSW4Z2ZxeV3dkl7jvMhe-108" value="es" style="rounded=0;whiteSpace=wrap;html=1;" vertex="1" parent="1">
          <mxGeometry x="1128.39" y="879" width="103.75" height="21.5" as="geometry" />
        </mxCell>
        <mxCell id="cSW4Z2ZxeV3dkl7jvMhe-113" value="k8s node1&lt;br&gt;redis master&lt;br&gt;mysql slave1&lt;br&gt;172.31.103.13" style="verticalLabelPosition=bottom;sketch=0;aspect=fixed;html=1;verticalAlign=top;strokeColor=rgb(0, 0, 0);align=center;outlineConnect=0;shape=mxgraph.citrix.tower_server;shadow=0;dashed=0;fontFamily=Helvetica;fontSize=12;fontColor=rgb(0, 0, 0);fillColor=rgb(255, 255, 255);" vertex="1" parent="1">
          <mxGeometry x="577.13" y="704.5" width="28.000000000000004" height="50" as="geometry" />
        </mxCell>
        <mxCell id="cSW4Z2ZxeV3dkl7jvMhe-114" value="k8s node2&lt;br&gt;redis slave 1&lt;br&gt;mysql master&lt;br&gt;172.31.103.14" style="verticalLabelPosition=bottom;sketch=0;aspect=fixed;html=1;verticalAlign=top;strokeColor=rgb(0, 0, 0);align=center;outlineConnect=0;shape=mxgraph.citrix.tower_server;shadow=0;dashed=0;fontFamily=Helvetica;fontSize=12;fontColor=rgb(0, 0, 0);fillColor=rgb(255, 255, 255);" vertex="1" parent="1">
          <mxGeometry x="683.19" y="704.5" width="28.000000000000004" height="50" as="geometry" />
        </mxCell>
        <mxCell id="cSW4Z2ZxeV3dkl7jvMhe-115" value="k8s node3&lt;br&gt;redis slave2&lt;br&gt;mysql slave2&lt;br&gt;172.31.103.15" style="verticalLabelPosition=bottom;sketch=0;aspect=fixed;html=1;verticalAlign=top;strokeColor=rgb(0, 0, 0);align=center;outlineConnect=0;shape=mxgraph.citrix.tower_server;shadow=0;dashed=0;fontFamily=Helvetica;fontSize=12;fontColor=rgb(0, 0, 0);fillColor=rgb(255, 255, 255);" vertex="1" parent="1">
          <mxGeometry x="788.1300000000001" y="704.5" width="28.000000000000004" height="50" as="geometry" />
        </mxCell>
        <mxCell id="cSW4Z2ZxeV3dkl7jvMhe-117" value="数据采集&lt;br&gt;引擎服务器2&lt;br&gt;172.31.103.17" style="verticalLabelPosition=bottom;sketch=0;aspect=fixed;html=1;verticalAlign=top;strokeColor=rgb(0, 0, 0);align=center;outlineConnect=0;shape=mxgraph.citrix.tower_server;shadow=0;dashed=0;fontFamily=Helvetica;fontSize=12;fontColor=rgb(0, 0, 0);fillColor=rgb(255, 255, 255);" vertex="1" parent="1">
          <mxGeometry x="574.01" y="1022" width="28.000000000000004" height="50" as="geometry" />
        </mxCell>
        <mxCell id="cSW4Z2ZxeV3dkl7jvMhe-118" value="" style="shape=partialRectangle;whiteSpace=wrap;html=1;bottom=1;right=1;left=1;top=0;fillColor=none;routingCenterX=-0.5;rounded=1;rotation=-180;" vertex="1" parent="1">
          <mxGeometry x="587.91" y="678.5" width="218.56" height="27" as="geometry" />
        </mxCell>
        <mxCell id="cSW4Z2ZxeV3dkl7jvMhe-121" value="k8s集群" style="text;html=1;align=center;verticalAlign=middle;resizable=0;points=[];autosize=1;strokeColor=none;fillColor=none;rotation=0;" vertex="1" parent="1">
          <mxGeometry x="1029.63" y="660" width="70" height="30" as="geometry" />
        </mxCell>
        <mxCell id="cSW4Z2ZxeV3dkl7jvMhe-123" value="" style="shape=partialRectangle;whiteSpace=wrap;html=1;bottom=1;right=1;left=1;top=0;fillColor=none;routingCenterX=-0.5;rotation=-180;" vertex="1" parent="1">
          <mxGeometry x="490" y="994" width="100" height="28" as="geometry" />
        </mxCell>
        <mxCell id="cSW4Z2ZxeV3dkl7jvMhe-126" value="" style="shape=flexArrow;endArrow=classic;html=1;rounded=0;" edge="1" parent="1">
          <mxGeometry width="50" height="50" relative="1" as="geometry">
            <mxPoint x="537" y="675" as="sourcePoint" />
            <mxPoint x="537" y="625" as="targetPoint" />
          </mxGeometry>
        </mxCell>
        <mxCell id="cSW4Z2ZxeV3dkl7jvMhe-127" value="" style="shape=flexArrow;endArrow=classic;html=1;rounded=0;entryX=0.312;entryY=1.006;entryDx=0;entryDy=0;entryPerimeter=0;" edge="1" parent="1" target="cSW4Z2ZxeV3dkl7jvMhe-2">
          <mxGeometry width="50" height="50" relative="1" as="geometry">
            <mxPoint x="538.5" y="994" as="sourcePoint" />
            <mxPoint x="538.5" y="944" as="targetPoint" />
          </mxGeometry>
        </mxCell>
      </root>
    </mxGraphModel>
  </diagram>
</mxfile>
